# xmcd
#
# Track frame offsets:
#	180
#	18604
#	49195
#	66417
#	77658
#	92665
#	109282
#	121147
#	135606
#	148123
#
# Disc length: 2134 seconds
#
# Revision: 0
# Processed by: cddbd v1.5.2PL0 Copyright (c) Steve Scherf et al.
# Submitted via: EasyCDDAExtractor 2010.6.0.0
#
DISCID=8d08540a
DTITLE=Sandra Smit - Ek Gee Jou My Woord
DYEAR=1900
DGENRE=Gospel
TTITLE0=Ek Gee Jou My Woord
TTITLE1=Skepper Gees
TTITLE2=Alles In Die Naam Van Jesus
TTITLE3=Soos 'n Hert
TTITLE4=I'll Go With God
TTITLE5=Here God Almagtig
TTITLE6=Neem My Hand
TTITLE7=Onthou Tog Net Die Kruis
TTITLE8=Lied Vir Die Nasies
TTITLE9=I Saw A Man
EXTD=
EXTT0=
EXTT1=
EXTT2=
EXTT3=
EXTT4=
EXTT5=
EXTT6=
EXTT7=
EXTT8=
EXTT9=
PLAYORDER=
